<svg display="none" width="0" height="0" version="1.1" xmlns="http://www.w3.org/2000/svg" xmlns:xlink="http://www.w3.org/1999/xlink">
<defs>
<symbol id="icon-dragons" viewBox="0 0 1679 1024">
	<title>dragons</title>
	<path class="path1" d="M645.851 609.016c-9.52 0-18.284 9.212-26.291 27.634-8.011 18.425-12.013 32.58-12.013 42.472 0 3.77 0.68 6.622 2.048 8.55 1.364 1.932 3.412 2.898 6.148 2.898 4.241 0 9.162-2.898 14.77-8.691 5.605-5.797 11.072-15.689 16.395-29.682s7.986-24.192 7.986-30.601c0-4.241-0.756-7.396-2.261-9.469-1.505-2.070-3.767-3.112-6.781-3.112z"></path>
	<path class="path2" d="M807.408 604.211c-3.959 0-7.588 1.885-10.884 5.652-3.3 3.77-6.339 10.226-9.118 19.366-2.783 9.14-4.168 15.881-4.168 20.212 0 5.467 0.868 9.567 2.616 12.295 1.74 2.735 4.357 4.1 7.845 4.1 5.558 0 10.833-5.605 15.83-16.818 4.993-11.213 7.49-22.141 7.49-32.79 0-4.049-0.803-7.067-2.403-9.046-1.607-1.979-4.009-2.971-7.208-2.971z"></path>
	<path class="path3" d="M344.227 607.322c-4.805 0-9.965 2.757-15.476 8.268s-11.119 15.005-16.818 28.48c-5.703 13.478-8.55 23.653-8.55 30.532 0 5.844 1.035 10.247 3.108 13.214 2.070 2.967 5.182 4.451 9.328 4.451 5.938 0 12.176-3.108 18.729-9.328 6.549-6.22 12.295-16.655 17.245-31.306 4.946-14.651 7.421-24.569 7.421-29.754 0-3.767-1.484-7.139-4.451-10.106s-6.488-4.451-10.537-4.451z"></path>
	<path class="path4" d="M683.732 343.21c4.241 0 9.162-2.898 14.77-8.691 5.605-5.797 11.072-15.689 16.395-29.682s7.986-24.192 7.986-30.601c0-4.241-0.756-7.396-2.261-9.469-1.509-2.070-3.77-3.108-6.784-3.108-9.52 0-18.284 9.212-26.291 27.634-8.011 18.425-12.013 32.58-12.013 42.472 0 3.77 0.68 6.622 2.048 8.55s3.416 2.895 6.151 2.895z"></path>
	<path class="path5" d="M1258.713 268.154c0-2.92-0.706-5.109-2.12-6.571-1.415-1.458-3.535-2.189-6.361-2.189-6.694 0-13.24 4.241-19.648 12.722s-11.828 20.165-16.254 35.055c11.496-1.697 21.768-6.643 30.814-14.843s13.569-16.257 13.569-24.174z"></path>
	<path class="path6" d="M1062.673 355.788c14.039 0 25.159-7.678 33.358-23.038 8.199-15.356 12.295-30.481 12.295-45.371 0-6.028-1.415-10.884-4.241-14.557s-6.879-5.511-12.154-5.511c-13.945 0-25.112 9.469-33.499 28.411-8.387 18.939-12.581 33.405-12.581 43.392 0 5.561 1.415 9.73 4.241 12.509 2.826 2.775 7.016 4.165 12.581 4.165z"></path>
	<path class="path7" d="M962.741 606.331c-12.44 0-22.401 9.238-29.895 27.702-7.49 18.468-11.235 33.311-11.235 44.524 0 8.387 1.578 14.68 4.736 18.87 3.155 4.194 7.892 6.289 14.206 6.289 11.684 0 21.222-8.811 28.621-26.432 7.396-17.618 11.094-32.507 11.094-44.665 0-9.234-1.766-15.921-5.301-20.071-3.532-4.139-7.609-6.216-12.226-6.216z"></path>
	<path class="path8" d="M0 0v1024h1678.926v-1024h-1678.926zM1196.242 273.669c20.162-18.844 42.263-28.267 66.289-28.267 10.461 0 18.28 1.932 23.462 5.797s7.772 9.661 7.772 17.386c0 12.252-7.588 23.299-22.756 33.144-15.172 9.849-35.149 16.608-59.928 20.281-0.847 3.018-1.274 5.891-1.274 8.623 0 7.447 1.599 13.051 4.805 16.818 3.202 3.77 8.007 5.652 14.416 5.652 6.502 0 13.12-1.86 19.858-5.583 6.734-3.72 13.591-9.303 20.567-16.749h18.797c-7.541 11.119-18.020 20.447-31.447 27.985s-28.057 11.307-43.887 11.307c-13.663 0-24.902-3.018-33.709-9.046-8.814-6.028-13.214-15.407-13.214-28.126 0-20.636 10.081-40.374 30.25-59.222zM1013.767 299.109l27.985-91.588c1.317-4.331 1.979-7.396 1.979-9.187 0-3.394-1.436-5.674-4.309-6.857-2.877-1.176-7.562-1.766-14.065-1.766l4.805-15.689c17.147 0 28.455-0.232 33.922-0.706 5.464-0.47 11.398-1.556 17.81-3.249h13.287l-29.258 95.97c13.377-13.757 28.361-20.636 44.947-20.636 13.095 0 23.252 3.698 30.459 11.094 7.208 7.4 10.812 17.365 10.812 29.895 0 20.73-8.623 39.86-25.864 57.384s-38.966 26.291-65.16 26.291c-17.904 0-31.404-4.053-40.493-12.154-9.097-8.102-13.641-17.477-13.641-28.126 0-5.75 2.261-15.975 6.784-30.677zM814.474 255.859c10.461-6.973 20.636-10.461 30.532-10.461 5.84 0 10.338 1.838 13.497 5.511 3.155 3.676 4.736 8.387 4.736 14.133 0 6.22-2.638 18.939-7.917 38.163 21.2-38.536 39.762-57.811 55.69-57.811 4.711 0 8.67 1.534 11.872 4.595 3.202 3.065 4.805 7.327 4.805 12.791 0 6.596-1.885 12.509-5.652 17.737-3.77 5.229-8.434 7.845-13.992 7.845-4.805 0-8.481-2.026-11.025-6.079-1.979-2.92-3.911-4.382-5.797-4.382-6.502 0-15.36 10.273-26.573 30.814-11.217 20.545-19.177 39.531-23.889 56.96h-42.686l24.876-81.555c1.697-5.464 2.544-9.375 2.544-11.731 0-2.92-1.462-4.382-4.382-4.382-6.694 0-13.62 6.455-20.777 19.366h-13.146c7.725-14.036 16.822-24.54 27.283-31.516zM656.029 276.353c15.356-19.409 32.884-29.117 52.579-29.117 6.122 0 10.906 1.675 14.347 5.019 3.437 3.347 5.532 8.409 6.289 15.194l4.946-17.527h40.424l-25.441 83.11c-1.603 5.279-2.403 8.246-2.403 8.905 0 2.638 1.317 3.959 3.959 3.959 4.805 0 9.61-4.288 14.416-12.863h15.689c-4.335 11.499-11.076 20.545-20.212 27.138-9.14 6.593-18.939 9.893-29.399 9.893-7.067 0-13.004-1.863-17.81-5.583s-7.208-9.683-7.208-17.878c0-2.167 0.329-4.852 0.988-8.058-16.304 21.016-32.276 31.52-47.915 31.52-6.879 0-12.983-2.594-18.305-7.772-5.326-5.182-7.986-13.236-7.986-24.171 0.004-21.765 7.682-42.353 23.042-61.766zM493.485 174.022c14.792 0 24.851-0.213 30.177-0.637 5.323-0.423 11.847-1.531 19.575-3.322h13.428l-34.487 113.074c17.81-25.159 37.219-37.74 58.234-37.74 7.819 0 13.685 1.816 17.596 5.442 3.908 3.629 5.865 8.221 5.865 13.782 0 2.638-0.496 5.891-1.484 9.752-0.988 3.864-6.245 21.627-15.758 53.288-2.453 8.105-3.676 12.769-3.676 13.992 0 2.544 1.176 3.817 3.535 3.817 2.261 0 4.805-1.317 7.631-3.959 2.826-2.638 5.938-6.593 9.328-11.872h16.395c-5.938 11.684-13.735 20.968-23.393 27.843-9.661 6.879-20.096 10.32-31.306 10.32-16.493 0-24.735-6.69-24.735-20.071 0-5.37 3.908-20.020 11.731-43.956 4.331-13.095 6.502-21.106 6.502-24.030 0-4.049-1.885-6.079-5.652-6.079-6.032 0-13.641 6.596-22.828 19.789s-17.596 28.553-25.231 46.076l-8.058 26.15h-41.98l49.329-161.271c1.129-3.767 1.697-6.502 1.697-8.199 0-4.993-5.797-7.49-17.386-7.49l4.95-14.701zM346.629 189.711c-14.984 0-26.244 3.582-33.781 10.743-7.541 7.161-14.184 16.869-19.93 29.117h-15.83l16.963-55.549h181.060l-16.818 55.549h-14.984c0.847-5.938 1.274-10.833 1.274-14.698 0-6.502-1.252-11.684-3.745-15.548-2.497-3.861-5.724-6.43-9.683-7.704s-10.226-1.907-18.797-1.907h-9.752l-40.993 134.412c-1.979 6.502-2.967 10.696-2.967 12.581 0 4.147 1.813 7.374 5.442 9.683 3.626 2.312 7.23 3.463 10.812 3.463h6.22l-4.809 15.827h-99.223l4.664-15.83h3.959c8.481 0 14.488-1.556 18.020-4.664s6.759-9.422 9.683-18.939l41.557-136.536h-8.34zM395.322 707.465c-10.034 6.643-20.238 9.965-30.601 9.965-7.349 0-13.030-2.073-17.032-6.22-4.006-4.147-6.007-9.563-6.007-16.254 0-1.035 0.090-2.493 0.282-4.382-15.266 18.001-31.853 26.997-49.753 26.997-9.422 0-16.985-3.108-22.687-9.328s-8.55-15.125-8.55-26.714c0-21.2 8.243-41.293 24.735-60.282 16.489-18.986 34.11-28.48 52.861-28.48 6.028 0 11.282 1.086 15.758 3.249 4.472 2.171 8.174 5.467 11.094 9.893l16.963-55.549c0.847-2.826 1.274-5.040 1.274-6.643 0-5.087-5.608-7.631-16.818-7.631l4.382-14.698c14.886 0 25.017-0.213 30.387-0.637s11.919-1.531 19.648-3.322h13.146l-48.197 158.163c-1.979 6.314-2.967 10.461-2.967 12.44 0 3.959 1.787 5.938 5.37 5.938 2.167 0 4.878-1.433 8.127-4.309 3.249-2.873 6.195-6.477 8.832-10.812h15.689c-7.258 12.433-15.903 21.974-25.937 28.618zM547.055 635.73c-4.805 0-8.481-2.026-11.025-6.079-1.979-2.92-3.911-4.382-5.797-4.382-6.502 0-15.36 10.273-26.573 30.814-11.217 20.545-19.177 39.531-23.889 56.96h-42.686l24.876-81.555c1.697-5.464 2.544-9.375 2.544-11.731 0-2.92-1.462-4.382-4.382-4.382-6.694 0-13.62 6.455-20.777 19.366h-13.146c7.725-14.039 16.818-24.543 27.279-31.52 10.461-6.973 20.636-10.461 30.532-10.461 5.84 0 10.338 1.838 13.497 5.511 3.155 3.676 4.736 8.387 4.736 14.133 0 6.22-2.638 18.939-7.917 38.163 21.2-38.536 39.762-57.811 55.69-57.811 4.711 0 8.67 1.534 11.872 4.595 3.202 3.065 4.805 7.327 4.805 12.791 0 6.596-1.885 12.509-5.652 17.737-3.767 5.236-8.431 7.848-13.989 7.848zM692.636 707.533c-9.14 6.593-18.939 9.893-29.399 9.893-7.067 0-13.004-1.863-17.81-5.583s-7.208-9.683-7.208-17.878c0-2.167 0.329-4.852 0.988-8.058-16.304 21.016-32.276 31.52-47.915 31.52-6.879 0-12.983-2.594-18.305-7.772-5.326-5.182-7.986-13.236-7.986-24.171 0-21.768 7.678-42.353 23.038-61.766 15.356-19.409 32.884-29.117 52.579-29.117 6.122 0 10.906 1.675 14.347 5.019 3.437 3.347 5.532 8.409 6.289 15.194l4.946-17.527h40.424l-25.441 83.11c-1.603 5.279-2.403 8.246-2.403 8.905 0 2.638 1.317 3.959 3.959 3.959 4.805 0 9.61-4.288 14.416-12.863h15.689c-4.331 11.499-11.072 20.545-20.209 27.138zM866.771 620.182c-3.77 0-7.49-1.979-11.166-5.938-2.171-2.261-3.959-3.394-5.37-3.394-0.847 0-1.979 0.376-3.394 1.129 5.276 6.032 7.917 13.004 7.917 20.918 0 8.576-2.851 16.608-8.55 24.098-5.703 7.49-12.628 12.722-20.777 15.689-8.152 2.967-18.729 4.689-31.733 5.16-16.304 0.756-24.453 3.817-24.453 9.187 0 2.453 1.389 4.523 4.168 6.22s9.683 4.006 20.708 6.926c19.315 5.087 33.119 10.649 41.412 16.677 8.199 6.028 12.295 14.463 12.295 25.3 0 13.851-6.904 24.5-20.708 31.943s-33.242 11.166-58.303 11.166c-21.768 0-38.116-2.826-49.047-8.481s-16.395-14.090-16.395-25.3c0-7.823 2.877-14.090 8.623-18.797 5.75-4.715 10.975-7.067 15.689-7.067 3.676 0 5.511 1.74 5.511 5.229 0 1.317-0.615 2.873-1.838 4.664-3.206 4.993-4.805 9.987-4.805 14.984 0 6.875 3.228 12.060 9.683 15.548 6.452 3.484 16.087 5.229 28.904 5.229 13.377 0 23.415-1.556 30.105-4.664s10.034-7.772 10.034-13.992c0-3.864-1.979-7.020-5.938-9.469-4.053-2.356-11.97-5.326-23.744-8.905-16.677-4.997-27.471-10.226-32.366-15.689-4.899-5.467-7.349-11.398-7.349-17.81 0-14.133 10.461-24.214 31.379-30.246-7.447-3.861-13.030-8.55-16.749-14.065-3.723-5.511-5.583-11.847-5.583-19.011 0-12.154 5.25-22.637 15.758-31.447 10.504-8.811 24.71-13.214 42.614-13.214 7.537 0 14.249 0.829 20.14 2.475 5.887 1.65 10.953 4.125 15.194 7.421 6.408-6.593 13.851-9.893 22.333-9.893 10.743 0 16.113 4.476 16.113 13.428 0.007 9.328-3.434 13.992-10.309 13.992zM999.066 695.73c-15.266 14.466-34.769 21.696-58.516 21.696-17.245 0-31.614-4.36-43.109-13.073-11.499-8.713-17.245-22.072-17.245-40.070 0-9.893 2.898-20.516 8.691-31.874 5.797-11.354 14.886-20.798 27.279-28.339 12.389-7.537 27.112-11.307 44.169-11.307 21.2 0 36.77 5.044 46.713 15.125 9.94 10.084 14.911 22.286 14.911 36.607 0.007 19.698-7.628 36.774-22.893 51.236zM1147.618 714.459c-9.14 0-15.642-1.907-19.507-5.724s-5.797-8.362-5.797-13.641c0-3.108 1.364-9.136 4.1-18.092l13.146-42.968c1.505-4.899 2.261-7.917 2.261-9.046 0-2.826-1.556-4.241-4.664-4.241-7.258 0-16.728 10.226-28.411 30.673s-20.165 37.646-25.441 51.591l-2.685 10.034h-41.98l27.138-88.48c1.415-4.523 2.12-7.49 2.12-8.905 0-1.223-0.333-2.12-0.988-2.685-0.662-0.564-1.65-0.847-2.967-0.847-5.938 0-11.872 6.784-17.81 20.353h-11.731c10.269-26.476 26.432-39.719 48.479-39.719 7.443 0 13.236 1.838 17.386 5.511 4.147 3.676 6.22 8.67 6.22 14.984 0 8.105-2.594 20.306-7.772 36.607 21.953-38.069 43.862-57.102 65.724-57.102 5.84 0 10.953 1.816 15.335 5.442 4.382 3.629 6.571 8.507 6.571 14.629 0 3.582-0.944 8.481-2.826 14.698l-14.416 47.068c-2.735 9.046-4.1 14.325-4.1 15.83 0 3.108 1.458 4.664 4.382 4.664 5.84 0 12.013-6.028 18.515-18.092h13.992c-11.307 24.974-29.399 37.457-54.276 37.457zM1335.321 628.454c-3.582 3.065-7.588 4.595-12.013 4.595-9.708 0-15.407-5.276-17.104-15.83-1.321-8.102-7.117-12.154-17.386-12.154-6.126 0-10.743 1.129-13.851 3.394s-4.664 5.652-4.664 10.175c0 2.735 1.060 5.16 3.181 7.28s7.139 5.493 15.052 10.106c14.039 8.105 23.226 15.501 27.561 22.191 4.331 6.694 6.502 13.24 6.502 19.648 0 11.499-5.42 20.99-16.254 28.48-10.837 7.49-26.15 11.235-45.935 11.235-15.74 0-28.459-2.497-38.163-7.49-9.708-4.993-14.557-12.389-14.557-22.191 0-4.711 1.531-8.927 4.595-12.65 3.061-3.72 7.512-5.583 13.355-5.583 10.551 0 16.912 6.737 19.080 20.212 1.505 9.99 8.384 14.984 20.636 14.984 6.784 0 12.154-1.364 16.113-4.1 3.959-2.732 5.938-6.122 5.938-10.175 0-2.638-1.086-5.019-3.249-7.139-2.171-2.12-7.682-6.007-16.536-11.662-13.478-8.384-22.452-15.429-26.924-21.131-4.476-5.699-6.712-12.599-6.712-20.708 0-11.025 5.203-19.977 15.617-26.856 10.41-6.875 25.274-10.32 44.593-10.32 16.207 0 28.006 2.287 35.406 6.857 7.396 4.574 11.094 10.247 11.094 17.032-0.004 4.802-1.795 8.738-5.373 11.8zM1398.147 710.927c-4.382 4.331-9.589 6.502-15.617 6.502-6.126 0-11.358-2.171-15.689-6.502-4.335-4.331-6.502-9.516-6.502-15.548 0-6.122 2.167-11.354 6.502-15.689 4.331-4.331 9.563-6.502 15.689-6.502 6.122 0 11.354 2.171 15.689 6.502 4.331 4.335 6.502 9.567 6.502 15.689 0 6.032-2.193 11.213-6.575 15.548zM1445.852 557.852l-42.263 93.995h-14.984l17.669-103.323c3.579-20.73 12.248-31.096 26.009-31.096 5.84 0 10.435 2.171 13.782 6.502 3.343 4.335 5.019 8.905 5.019 13.71-0.004 5.844-1.748 12.577-5.232 20.212z"></path>
</symbol>
<symbol id="icon-m-color" viewBox="0 0 1024 1024">
	<title>m-color</title>
	<path class="path1" d="M1024 896c0 70.688-57.312 128-128 128h-768c-70.688 0-128-57.312-128-128v-768c0-70.688 57.312-128 128-128h768c70.688 0 128 57.312 128 128v768z"></path>
	<path class="path2" d="M896 42.667c47.051 0 85.333 38.283 85.333 85.333v768c0 47.051-38.283 85.333-85.333 85.333h-768c-47.051 0-85.333-38.283-85.333-85.333v-768c0-47.051 38.283-85.333 85.333-85.333h768zM896 0h-768c-70.688 0-128 57.312-128 128v768c0 70.688 57.312 128 128 128h768c70.688 0 128-57.312 128-128v-768c0-70.688-57.312-128-128-128v0z"></path>
	<path class="path3" d="M249.483 200.864c27.147 0 90.165 2.912 130.891 2.912 0.971 21.333 5.813 28.117 11.637 56.235 25.205 99.861 102.773 403.328 110.528 423.691 0.971 0.971 2.912 0.971 3.883 0 28.117-40.725 197.781-337.397 252.075-433.376 8.725-20.363 14.549-32.971 17.451-46.539 82.411 0 109.557-2.912 126.037-2.912 1.941 2.912 1.941 12.608-0.971 14.539-23.264 3.883-35.872 4.853-48.469 8.725-28.117 6.784-32 20.363-35.872 42.656-13.579 95.979-31.029 369.387-35.872 442.101-1.941 46.539-2.912 62.048 21.323 68.832 18.421 4.853 33.941 5.824 50.421 8.725 0.971 1.941 0.971 12.608-0.971 14.549-14.549 0-87.253-2.912-104.704-2.912-11.637 0-84.352 2.912-97.92 2.912-2.912-1.941-2.912-13.579-0.971-14.549 21.323-2.901 35.872-4.843 47.499-8.725 10.667-4.843 18.421-7.755 22.304-34.901 10.667-50.411 34.901-376.181 43.627-450.827 0-0.971-1.941-1.941-2.912-0.971-27.147 51.392-241.408 421.749-284.064 508.032-1.941 1.941-13.579 3.872-14.549 1.941-9.696-88.224-110.528-499.307-110.528-499.307-0.971-0.971-3.883-1.941-4.843 0-22.304 82.411-82.411 307.339-103.744 403.328-8.725 40.715-10.667 64.949 18.421 72.704 10.667 2.912 30.059 5.824 48.48 8.725 1.941 1.941 0 12.608-1.941 14.549-14.549 0-51.392-2.912-93.077-2.912-53.323 0-88.224 2.912-100.832 2.912-2.912-2.912-2.912-12.608 0-14.549l35.872-5.813c32-5.813 42.667-21.333 61.088-78.528 27.147-87.253 97.92-336.427 119.253-432.416 3.883-15.509 3.883-35.872-17.451-42.656-12.608-3.883-32.971-6.784-63.019-11.637-1.952-1.941-0.011-13.568 1.92-14.539z"></path>
</symbol>
<symbol id="icon-m" viewBox="0 0 1352 1024">
	<title>m</title>
	<path class="path1" d="M238.314 0c46.258 0 153.642 4.96 223.036 4.96 1.653 36.35 9.921 47.912 19.829 95.823 42.964 170.164 175.124 687.27 188.339 721.967 1.653 1.653 4.96 1.653 6.614 0 47.885-69.407 336.995-574.938 429.511-738.488 14.868-34.697 24.789-56.179 29.736-79.301 140.428 0 186.686-4.96 214.769-4.96 3.307 4.96 3.307 21.482-1.653 24.776-39.644 6.614-61.126 8.267-82.595 14.881-47.912 11.561-54.525 34.697-61.126 72.687-23.136 163.55-52.872 629.437-61.126 753.343-3.307 79.301-4.96 105.731 36.337 117.292 31.39 8.267 57.832 9.921 85.915 14.868 1.653 3.307 1.653 21.482-1.653 24.789-24.789 0-148.682-4.96-178.418-4.96-19.829 0-143.735 4.96-166.857 4.96-4.96-3.307-4.96-23.136-1.653-24.789 36.337-4.947 61.126-8.254 80.942-14.868 18.175-8.254 31.39-13.215 38.004-59.473 18.175-85.902 59.473-640.999 74.341-768.212 0-1.653-3.307-3.307-4.96-1.653-46.258 87.569-411.362 718.66-484.049 865.688-3.307 3.307-23.136 6.601-24.789 3.307-16.522-150.335-188.339-850.82-188.339-850.82-1.653-1.653-6.614-3.307-8.267 0-37.977 140.414-140.401 523.707-176.751 687.27-14.868 69.38-18.175 110.678 31.39 123.893 18.175 4.96 51.219 9.921 82.608 14.868 3.307 3.307 0 21.482-3.307 24.789-24.789 0-87.569-4.96-158.603-4.96-90.863 0-150.335 4.96-171.817 4.96-4.96-4.96-4.96-21.482 0-24.789l61.126-9.908c54.525-9.908 72.701-36.35 104.091-133.814 46.258-148.682 166.857-573.272 203.207-736.835 6.614-26.429 6.614-61.126-29.736-72.687-21.482-6.614-56.179-11.574-107.384-19.829-3.32-3.294-0.013-23.122 3.294-24.776z"></path>
</symbol>
<symbol id="carpet" viewBox="0 0 142.267 151.47">
	<rect fill="#78C4B5" width="142.267" height="151.47"/>
	<rect x="43.096" y="19.388" transform="matrix(0.7071 -0.7071 0.7071 0.7071 -20.2017 47.1836)" fill="#124663" width="7.518" height="57.18"/>
	<rect x="81.466" y="72.34" transform="matrix(0.7071 -0.7071 0.7071 0.7071 -36.095 85.5535)" fill="#124663" width="7.518" height="28.014"/>
	<rect x="67.436" y="68.559" transform="matrix(0.7071 -0.7071 0.7071 0.7071 -30.284 71.5244)" fill="#124663" width="7.518" height="7.518"/>
	<rect x="74.411" y="61.585" transform="matrix(0.7071 -0.7071 0.7071 0.7071 -23.3096 74.4133)" fill="#FF2030" width="7.518" height="7.518"/>
	<rect x="11.273" y="68.902" transform="matrix(0.7071 -0.7071 0.7071 0.7071 -46.9764 31.9112)" fill="#124663" width="7.518" height="7.518"/>
	<polygon fill="#124663" points="0,67.345 5.316,72.661 0,77.977 "/>
	<polyline fill="#124663" points="142.267,77.977 136.95,72.661 142.267,67.345 "/>
	<rect x="123.475" y="68.902" transform="matrix(0.7071 -0.7071 0.7071 0.7071 -14.113 111.2503)" fill="#124663" width="7.518" height="7.518"/>
	<rect x="18.388" y="19.511" transform="matrix(0.7071 -0.7071 0.7071 0.7071 -9.9675 22.4763)" fill="#124663" width="7.518" height="7.518"/>
	<rect x="36.343" y="65.272" transform="matrix(-0.7071 -0.7071 0.7071 -0.7071 -4.6652 204.8915)" fill="#124663" width="7.518" height="76.28"/>
	<rect x="19.262" y="131.194" transform="matrix(0.7071 -0.7071 0.7071 0.7071 -88.6837 55.8054)" fill="#FF2030" width="7.518" height="7.518"/>
	<rect x="26.778" y="123.678" transform="matrix(0.7071 -0.7071 0.7071 0.7071 -81.1677 58.9186)" fill="#FF2030" width="7.518" height="7.518"/>
	<rect x="34.294" y="116.162" transform="matrix(0.7071 -0.7071 0.7071 0.7071 -73.6517 62.0319)" fill="#FF2030" width="7.518" height="7.518"/>
	<rect x="67.884" y="112.636" transform="matrix(0.7071 -0.7071 0.7071 0.7071 -61.3202 84.7509)" fill="#124663" width="7.518" height="7.518"/>
	<rect x="67.884" y="97.604" transform="matrix(0.7071 -0.7071 0.7071 0.7071 -50.6909 80.3481)" fill="#124663" width="7.518" height="7.518"/>
	<rect x="67.884" y="82.572" transform="matrix(0.7071 -0.7071 0.7071 0.7071 -40.0616 75.9453)" fill="#124663" width="7.518" height="7.518"/>
	<rect x="95.495" y="96.617" transform="matrix(0.7071 -0.7071 0.7071 0.7071 -41.9061 99.5826)" fill="#699FEC" width="7.518" height="7.518"/>
	<rect x="102.277" y="103.4" transform="matrix(0.7071 -0.7071 0.7071 0.7071 -44.7156 106.3654)" fill="#699FEC" width="7.518" height="7.518"/>
	<rect x="109.06" y="110.183" transform="matrix(0.7071 -0.7071 0.7071 0.7071 -47.5251 113.1481)" fill="#699FEC" width="7.518" height="7.518"/>
	<rect x="115.843" y="116.966" transform="matrix(0.7071 -0.7071 0.7071 0.7071 -50.3346 119.9309)" fill="#699FEC" width="7.518" height="7.518"/>
	<rect x="66.28" y="53.454" transform="matrix(0.7071 -0.7071 0.7071 0.7071 -19.9417 66.2825)" fill="#A75FBD" width="7.518" height="7.518"/>
	<rect x="73.063" y="46.671" transform="matrix(0.7071 -0.7071 0.7071 0.7071 -13.159 69.092)" fill="#A75FBD" width="7.518" height="7.518"/>
	<rect x="79.846" y="39.888" transform="matrix(0.7071 -0.7071 0.7071 0.7071 -6.3762 71.9015)" fill="#A75FBD" width="7.518" height="7.518"/>
	<rect x="86.628" y="33.106" transform="matrix(0.7071 -0.7071 0.7071 0.7071 0.4065 74.711)" fill="#A75FBD" width="7.518" height="7.518"/>
	<rect x="93.411" y="26.323" transform="matrix(0.7071 -0.7071 0.7071 0.7071 7.1893 77.5205)" fill="#A75FBD" width="7.518" height="7.518"/>
	<rect x="100.194" y="19.54" transform="matrix(0.7071 -0.7071 0.7071 0.7071 13.972 80.3301)" fill="#A75FBD" width="7.518" height="7.518"/>
	<rect x="106.977" y="12.757" transform="matrix(0.7071 -0.7071 0.7071 0.7071 20.7548 83.1396)" fill="#A75FBD" width="7.518" height="7.518"/>
</symbol>

</defs>
</svg>